<svg xmlns="http://www.w3.org/2000/svg" viewBox="0 0 220 220">
  <g transform="translate(0,220) scale(0.1,-0.1)" fill="#4B97D3">
    <path d="M890 1450 l0 -29 -137 -3 -138 -3 -3 -32 -3 -32 138 -3 138 -3 3 -34 c2 -18 -1 -38 -6 -43 -5 -5 -79 -6 -175 -2 l-166 7 -3 71 -3 71 -112 3 -113 3 0 -141 0 -140 115 0 115 0 0 30 c0 28 3 30 35 30 38 0 38 1 39 -120 l1 -35 139 -3 138 -3 -7 -37 c-15 -85 -73 -178 -140 -223 -31 -21 -35 -29 -35 -66 l0 -43 135 0 135 0 0 70 0 70 130 0 130 0 0 -70 0 -70 135 0 135 0 -1 43 c0 39 -5 45 -52 82 -99 76 -144 216 -99 304 21 42 25 44 135 70 118 28 225 83 304 155 55 51 123 133 123 150 0 3 -232 6 -515 6 l-515 0 0 -30z m-415 -175 l0 -70 -50 0 -50 0 -3 59 c-4 83 -1 88 55 84 l48 -3 0 -70z m637 -83 l-4 -71 -61 -5 c-34 -3 -129 -4 -212 -3 l-150 2 -3 43 -3 42 140 0 141 0 0 35 0 34 68 3 c37 2 72 0 77 -4 6 -3 9 -37 7 -76z"/>
  </g>
</svg>
